<svg xmlns="http://www.w3.org/2000/svg" viewBox="0 0 64 64">
  <rect width="64" height="64" rx="14" fill="#FBF8F2"/>
  <g fill="#E48AA0">
    <path d="M32 14c3 4 3 9 0 13-3-4-3-9 0-13z"/>
    <path d="M32 50c-3-4-3-9 0-13 3 4 3 9 0 13z"/>
    <path d="M14 32c4-3 9-3 13 0-4 3-9 3-13 0z"/>
    <path d="M50 32c-4 3-9 3-13 0 4-3 9-3 13 0z"/>
    <path d="M19 19c5 1 8 4 9 9-5-1-8-4-9-9z"/>
    <path d="M45 45c-5-1-8-4-9-9 5 1 8 4 9 9z"/>
    <path d="M45 19c-1 5-4 8-9 9 1-5 4-8 9-9z"/>
    <path d="M19 45c1-5 4-8 9-9-1 5-4 8-9 9z"/>
  </g>
  <circle cx="32" cy="32" r="4" fill="#D9A441"/>
</svg>
